<svg width="15" height="17" viewBox="0 0 15 17" fill="none" xmlns="http://www.w3.org/2000/svg">
<path fill-rule="evenodd" clip-rule="evenodd" d="M13.3929 6.375V12.2188H4.82143V1.59375H8.57143V4.51562C8.57143 5.542 9.41143 6.375 10.4464 6.375H13.3929ZM10.1786 1.72231L13.2632 4.78125H10.4464C10.3754 4.78125 10.3073 4.75326 10.257 4.70345C10.2068 4.65364 10.1786 4.58607 10.1786 4.51562V1.72231ZM4.28571 0C4.00155 0 3.72903 0.111942 3.5281 0.311199C3.32717 0.510456 3.21429 0.780707 3.21429 1.0625V3.1875H1.33929C0.6 3.1875 0 3.7825 0 4.51562V15.6719C0 16.405 0.6 17 1.33929 17H10.1786C10.9179 17 11.5179 16.405 11.5179 15.6719V13.8975C11.5179 13.8691 11.5165 13.8407 11.5136 13.8125H13.9286C14.2127 13.8125 14.4853 13.7006 14.6862 13.5013C14.8871 13.302 15 13.0318 15 12.75V4.68988C14.9999 4.40811 14.887 4.1379 14.6861 3.93869L11.0282 0.311313C10.8273 0.112041 10.5549 6.01772e-05 10.2707 0H4.28571ZM3.21429 12.75V4.78125H1.60714V15.4062H9.91071V13.8975C9.91071 13.8688 9.91179 13.8401 9.915 13.8125H4.28571C4.00155 13.8125 3.72903 13.7006 3.5281 13.5013C3.32717 13.302 3.21429 13.0318 3.21429 12.75Z" fill="#5F457E"/>
</svg>
