<svg width="22" height="26" viewBox="0 0 22 26" fill="none" xmlns="http://www.w3.org/2000/svg">
<path d="M19.5556 18.5714V12.1333C18.9444 12.2571 18.3333 12.381 17.7222 12.381H17.1111V19.8095H4.88889V11.1429C4.88889 7.67619 7.57778 4.95238 11 4.95238C11.1222 3.34286 11.8556 1.98095 12.8333 0.866667C12.4667 0.371429 11.7333 0 11 0C9.65556 0 8.55556 1.11429 8.55556 2.47619V2.84762C4.88889 3.96191 2.44444 7.30476 2.44444 11.1429V18.5714L0 21.0476V22.2857H22V21.0476L19.5556 18.5714ZM8.55556 23.5238C8.55556 24.8857 9.65556 26 11 26C12.3444 26 13.4444 24.8857 13.4444 23.5238H8.55556ZM22 5.57143C22 7.92381 20.0444 9.90476 17.7222 9.90476C15.4 9.90476 13.4444 7.92381 13.4444 5.57143C13.4444 3.21905 15.4 1.2381 17.7222 1.2381C20.0444 1.2381 22 3.21905 22 5.57143Z" fill="#5F447D" fill-opacity="0.75"/>
</svg>
