<svg width="19" height="17" viewBox="0 0 19 17" fill="none" xmlns="http://www.w3.org/2000/svg">
<path d="M17.2727 15.3H19V17H0V15.3H1.72727V0.85C1.72727 0.624566 1.81826 0.408365 1.98023 0.248959C2.14219 0.0895533 2.36186 0 2.59091 0H16.4091C16.6381 0 16.8578 0.0895533 17.0198 0.248959C17.1817 0.408365 17.2727 0.624566 17.2727 0.85V15.3ZM15.5455 15.3V1.7H3.45455V15.3H15.5455ZM6.04545 7.65H8.63636V9.35H6.04545V7.65ZM6.04545 4.25H8.63636V5.95H6.04545V4.25ZM6.04545 11.05H8.63636V12.75H6.04545V11.05ZM10.3636 11.05H12.9545V12.75H10.3636V11.05ZM10.3636 7.65H12.9545V9.35H10.3636V7.65ZM10.3636 4.25H12.9545V5.95H10.3636V4.25Z" fill="#5F457E"/>
</svg>
