<svg width="25" height="25" viewBox="0 0 25 25" fill="none" xmlns="http://www.w3.org/2000/svg">
<path d="M23.5596 2.68555C23.7712 3.05176 23.9624 3.40169 24.1333 3.73535C24.3042 4.06901 24.4588 4.40674 24.5972 4.74854C24.7355 5.09033 24.8332 5.44434 24.8901 5.81055C24.9471 6.17676 24.9837 6.58366 25 7.03125C25 7.67415 24.9186 8.29264 24.7559 8.88672C24.5931 9.48079 24.3571 10.0423 24.0479 10.5713C23.7386 11.1003 23.3683 11.5763 22.937 11.9995C22.5057 12.4227 22.0296 12.7889 21.5088 13.0981C20.988 13.4074 20.4305 13.6434 19.8364 13.8062C19.2423 13.9689 18.6198 14.0544 17.9688 14.0625C17.7816 14.0625 17.5944 14.0544 17.4072 14.0381C17.2201 14.0218 17.0288 13.9974 16.8335 13.9648L6.99463 23.8037C6.604 24.1943 6.16048 24.4914 5.66406 24.6948C5.16764 24.8983 4.64274 25 4.08936 25C3.52783 25 2.99886 24.8942 2.50244 24.6826C2.00602 24.471 1.57471 24.1781 1.2085 23.8037C0.842285 23.4294 0.549316 22.994 0.32959 22.4976C0.109863 22.0011 0 21.4722 0 20.9106C0 20.3654 0.101725 19.8446 0.305176 19.3481C0.508626 18.8517 0.805664 18.4041 1.19629 18.0054L11.0352 8.1665C11.0026 7.97933 10.9782 7.79215 10.9619 7.60498C10.9456 7.41781 10.9375 7.22656 10.9375 7.03125C10.9375 6.38835 11.0189 5.76986 11.1816 5.17578C11.3444 4.58171 11.5804 4.02018 11.8896 3.49121C12.1989 2.96224 12.5692 2.48617 13.0005 2.06299C13.4318 1.63981 13.9079 1.2736 14.4287 0.964355C14.9495 0.655111 15.507 0.419108 16.1011 0.256348C16.6952 0.0935872 17.3177 0.00813802 17.9688 0C18.4082 0 18.811 0.0325521 19.1772 0.0976562C19.5435 0.16276 19.9015 0.264486 20.2515 0.402832C20.6014 0.541178 20.9391 0.691732 21.2646 0.854492C21.5902 1.01725 21.9401 1.21257 22.3145 1.44043L17.5049 6.25L18.75 7.49512L23.5596 2.68555ZM17.9688 12.5C18.7256 12.5 19.4336 12.3576 20.0928 12.0728C20.752 11.7879 21.3298 11.3973 21.8262 10.9009C22.3226 10.4045 22.7132 9.82666 22.998 9.16748C23.2829 8.5083 23.4294 7.79622 23.4375 7.03125C23.4375 6.43717 23.3398 5.86344 23.1445 5.31006L18.75 9.69238L15.3076 6.25L19.6899 1.85547C19.1366 1.66016 18.5628 1.5625 17.9688 1.5625C17.2119 1.5625 16.5039 1.70492 15.8447 1.98975C15.1855 2.27458 14.6077 2.6652 14.1113 3.16162C13.6149 3.65804 13.2243 4.23584 12.9395 4.89502C12.6546 5.5542 12.5081 6.26628 12.5 7.03125C12.5 7.31608 12.5244 7.59277 12.5732 7.86133C12.6221 8.12988 12.679 8.39844 12.7441 8.66699L2.30713 19.1162C2.07113 19.3522 1.88802 19.6248 1.75781 19.9341C1.6276 20.2433 1.5625 20.5688 1.5625 20.9106C1.5625 21.2524 1.6276 21.578 1.75781 21.8872C1.88802 22.1965 2.07113 22.465 2.30713 22.6929C2.54313 22.9207 2.81169 23.0998 3.11279 23.23C3.4139 23.3602 3.73942 23.4294 4.08936 23.4375C4.43115 23.4375 4.75667 23.3724 5.06592 23.2422C5.37516 23.112 5.64779 22.9289 5.88379 22.6929L16.333 12.2559C16.6016 12.321 16.8701 12.3779 17.1387 12.4268C17.4072 12.4756 17.6839 12.5 17.9688 12.5Z" fill="#A196CB"/>
</svg>
