<svg width="25" height="25" viewBox="0 0 25 25" fill="none" xmlns="http://www.w3.org/2000/svg">
<path d="M12.5 2.34375C15.1936 2.34375 17.7769 3.41378 19.6816 5.31845C21.5862 7.22311 22.6562 9.80639 22.6562 12.5C22.6562 15.1936 21.5862 17.7769 19.6816 19.6816C17.7769 21.5862 15.1936 22.6562 12.5 22.6562V2.34375ZM12.5 0C9.18479 0 6.00537 1.31696 3.66117 3.66117C1.31696 6.00537 0 9.18479 0 12.5C0 15.8152 1.31696 18.9946 3.66117 21.3388C6.00537 23.683 9.18479 25 12.5 25C15.8152 25 18.9946 23.683 21.3388 21.3388C23.683 18.9946 25 15.8152 25 12.5C25 9.18479 23.683 6.00537 21.3388 3.66117C18.9946 1.31696 15.8152 0 12.5 0Z" fill="#A196CB"/>
</svg>
