<svg width="30" height="30" viewBox="0 0 30 30" fill="none" xmlns="http://www.w3.org/2000/svg">
<path d="M28.9393 10.2765C30.7337 8.48212 29.9154 6.38632 28.9393 5.36713L24.6326 1.06068C22.8238 -0.73367 20.7422 0.0845551 19.723 1.06068L17.2825 3.51536H13.5644C10.8369 3.51536 9.25777 4.95084 8.45386 6.60164L2.07998 12.9752V18.7171L1.06074 19.722C-0.733708 21.5307 0.0845595 23.6121 1.06074 24.6313L5.36741 28.9377C6.14261 29.7129 6.97523 30 7.76479 30C8.78404 30 9.71715 29.4976 10.277 28.9377L14.153 25.0476H19.3067C21.7471 25.0476 22.9817 23.526 23.4267 22.0331C25.0489 21.6024 25.9389 20.3679 26.2978 19.1621C28.523 18.5879 29.3556 16.4778 29.3556 14.9992V10.6928H28.5086L28.9393 10.2765ZM26.4845 14.9992C26.4845 15.6452 26.2117 16.4347 25.0489 16.4347H23.6133V17.8702C23.6133 18.5161 23.3406 19.3057 22.1778 19.3057H20.7422V20.7411C20.7422 21.3871 20.4695 22.1766 19.3067 22.1766H12.9759L8.26724 26.885C7.82221 27.3013 7.56381 27.0573 7.4059 26.8994L3.11359 22.6216C2.69727 22.1766 2.94132 21.9182 3.09923 21.7603L4.9511 19.8942V14.1523L7.82221 11.2813V13.5637C7.82221 15.3007 8.97066 17.8702 12.1289 17.8702C15.2871 17.8702 16.4356 15.3007 16.4356 13.5637H26.4845V14.9992ZM26.9008 8.23809L24.4603 10.6928H13.5644V13.5637C13.5644 14.2097 13.2917 14.9992 12.1289 14.9992C10.9661 14.9992 10.6933 14.2097 10.6933 13.5637V9.25729C10.6933 8.59696 10.9374 6.38632 13.5644 6.38632H18.4597L21.7328 3.11342C22.1778 2.69713 22.4362 2.94116 22.5941 3.09907L26.8864 7.3768C27.3027 7.8218 27.0587 8.08019 26.9008 8.23809Z" fill="#A196CB"/>
</svg>
