<svg width="25" height="30" viewBox="0 0 25 30" fill="none" xmlns="http://www.w3.org/2000/svg">
<path d="M13.2353 29.6296L12.8676 25.1852H12.5C9.01961 25.1852 6.06618 23.963 3.63971 21.5185C1.21324 19.0741 0 16.0988 0 12.5926C0 9.08642 1.21324 6.11111 3.63971 3.66667C6.06618 1.22222 9.01961 0 12.5 0C14.2402 0 15.8642 0.326914 17.3721 0.980741C18.8799 1.63457 20.2034 2.5358 21.3426 3.68444C22.4819 4.83309 23.376 6.16642 24.025 7.68444C24.674 9.20247 24.999 10.8385 25 12.5926C25 16.3457 23.8848 19.7101 21.6544 22.6859C19.424 25.6617 16.6176 27.9763 13.2353 29.6296ZM12.4632 20.7037C12.8799 20.7037 13.2353 20.5556 13.5294 20.2593C13.8235 19.963 13.9706 19.6049 13.9706 19.1852C13.9706 18.7654 13.8235 18.4074 13.5294 18.1111C13.2353 17.8148 12.8799 17.6667 12.4632 17.6667C12.0466 17.6667 11.6912 17.8148 11.3971 18.1111C11.1029 18.4074 10.9559 18.7654 10.9559 19.1852C10.9559 19.6049 11.1029 19.963 11.3971 20.2593C11.6912 20.5556 12.0466 20.7037 12.4632 20.7037ZM12.5 16C12.7696 16 13.0147 15.9012 13.2353 15.7037C13.4559 15.5062 13.6029 15.2346 13.6765 14.8889C13.7255 14.5679 13.8603 14.2775 14.0809 14.0178C14.3015 13.758 14.6814 13.357 15.2206 12.8148C15.6618 12.3704 16.0294 11.8889 16.3235 11.3704C16.6176 10.8519 16.7647 10.2963 16.7647 9.7037C16.7647 8.44444 16.3422 7.49975 15.4971 6.86963C14.652 6.23951 13.6529 5.92494 12.5 5.92593C11.6422 5.92593 10.9005 6.12346 10.275 6.51852C9.64951 6.91358 9.14118 7.40741 8.75 8C8.57843 8.27161 8.54804 8.55556 8.65882 8.85185C8.76961 9.14815 8.99608 9.35802 9.33824 9.48148C9.58333 9.58025 9.82843 9.58025 10.0735 9.48148C10.3186 9.38272 10.5392 9.19753 10.7353 8.92593C10.9314 8.65432 11.1706 8.4321 11.4529 8.25926C11.7353 8.08642 12.0843 8 12.5 8C13.1618 8 13.6583 8.18519 13.9897 8.55556C14.3211 8.92593 14.4863 9.33333 14.4853 9.77778C14.4853 10.1975 14.3627 10.5743 14.1176 10.9081C13.8725 11.242 13.5784 11.5812 13.2353 11.9259C12.549 12.5185 12.0892 13 11.8559 13.3704C11.6225 13.7407 11.4819 14.2469 11.4338 14.8889C11.4093 15.1852 11.5015 15.4444 11.7103 15.6667C11.9191 15.8889 12.1824 16 12.5 16ZM16.1765 22.2222V24.2222C17.9167 22.7407 19.3324 21.0059 20.4235 19.0178C21.5147 17.0296 22.0598 14.8879 22.0588 12.5926C22.0588 9.90123 21.1333 7.6237 19.2824 5.76C17.4314 3.8963 15.1706 2.96395 12.5 2.96296C9.82843 2.96296 7.56765 3.89531 5.71765 5.76C3.86765 7.62469 2.94216 9.90222 2.94118 12.5926C2.94118 15.284 3.86667 17.5615 5.71765 19.4252C7.56863 21.2889 9.82941 22.2212 12.5 22.2222H16.1765Z" fill="#A196CB"/>
</svg>
