<svg width="25" height="25" viewBox="0 0 25 25" fill="none" xmlns="http://www.w3.org/2000/svg">
<path d="M13.75 17.5015H6.25001C5.91849 17.5015 5.60055 17.6332 5.36612 17.8675C5.1317 18.1019 5.00001 18.4198 5.00001 18.7512C5.00001 19.0827 5.1317 19.4006 5.36612 19.635C5.60055 19.8693 5.91849 20.001 6.25001 20.001H13.75C14.0815 20.001 14.3995 19.8693 14.6339 19.635C14.8683 19.4006 15 19.0827 15 18.7512C15 18.4198 14.8683 18.1019 14.6339 17.8675C14.3995 17.6332 14.0815 17.5015 13.75 17.5015ZM8.75001 10.003H11.25C11.5815 10.003 11.8995 9.87131 12.1339 9.63694C12.3683 9.40256 12.5 9.08468 12.5 8.75323C12.5 8.42177 12.3683 8.10389 12.1339 7.86952C11.8995 7.63515 11.5815 7.50348 11.25 7.50348H8.75001C8.41849 7.50348 8.10054 7.63515 7.86612 7.86952C7.6317 8.10389 7.50001 8.42177 7.50001 8.75323C7.50001 9.08468 7.6317 9.40256 7.86612 9.63694C8.10054 9.87131 8.41849 10.003 8.75001 10.003ZM23.75 12.5025H20V1.25472C20.0009 1.0345 19.9435 0.81796 19.8338 0.627026C19.724 0.436092 19.5658 0.277544 19.375 0.167435C19.185 0.0577464 18.9694 0 18.75 0C18.5306 0 18.315 0.0577464 18.125 0.167435L14.375 2.31701L10.625 0.167435C10.435 0.0577464 10.2194 0 10 0C9.78059 0 9.56503 0.0577464 9.37501 0.167435L5.62501 2.31701L1.87501 0.167435C1.68499 0.0577464 1.46943 0 1.25001 0C1.03059 0 0.815034 0.0577464 0.62501 0.167435C0.434254 0.277544 0.275987 0.436092 0.166233 0.627026C0.0564785 0.81796 -0.000864605 1.0345 9.8536e-06 1.25472V21.2507C9.8536e-06 22.2451 0.395098 23.1987 1.09836 23.9019C1.80162 24.605 2.75545 25 3.75001 25H21.25C22.2446 25 23.1984 24.605 23.9017 23.9019C24.6049 23.1987 25 22.2451 25 21.2507V13.7522C25 13.4208 24.8683 13.1029 24.6339 12.8685C24.3995 12.6342 24.0815 12.5025 23.75 12.5025ZM3.75001 22.5005C3.41849 22.5005 3.10055 22.3688 2.86613 22.1345C2.63171 21.9001 2.50001 21.5822 2.50001 21.2507V3.41679L5.00001 4.84151C5.19293 4.94225 5.40736 4.99486 5.62501 4.99486C5.84266 4.99486 6.05709 4.94225 6.25001 4.84151L10 2.69193L13.75 4.84151C13.9429 4.94225 14.1574 4.99486 14.375 4.99486C14.5927 4.99486 14.8071 4.94225 15 4.84151L17.5 3.41679V21.2507C17.5034 21.6771 17.5795 22.0997 17.725 22.5005H3.75001ZM22.5 21.2507C22.5 21.5822 22.3683 21.9001 22.1339 22.1345C21.8995 22.3688 21.5815 22.5005 21.25 22.5005C20.9185 22.5005 20.6005 22.3688 20.3661 22.1345C20.1317 21.9001 20 21.5822 20 21.2507V15.002H22.5V21.2507ZM13.75 12.5025H6.25001C5.91849 12.5025 5.60055 12.6342 5.36612 12.8685C5.1317 13.1029 5.00001 13.4208 5.00001 13.7522C5.00001 14.0837 5.1317 14.4016 5.36612 14.6359C5.60055 14.8703 5.91849 15.002 6.25001 15.002H13.75C14.0815 15.002 14.3995 14.8703 14.6339 14.6359C14.8683 14.4016 15 14.0837 15 13.7522C15 13.4208 14.8683 13.1029 14.6339 12.8685C14.3995 12.6342 14.0815 12.5025 13.75 12.5025Z" fill="#A196CB"/>
</svg>
