<svg width="25" height="25" viewBox="0 0 25 25" fill="none" xmlns="http://www.w3.org/2000/svg">
<path d="M2.5 0C1.83696 0 1.20107 0.263392 0.732233 0.732233C0.263392 1.20107 0 1.83696 0 2.5V17.5C0 18.163 0.263392 18.7989 0.732233 19.2678C1.20107 19.7366 1.83696 20 2.5 20H7.5V23.75C7.5 24.0815 7.6317 24.3995 7.86612 24.6339C8.10054 24.8683 8.41848 25 8.75 25H9.375C9.6875 25 10 24.875 10.25 24.6375L14.875 20H22.5C23.163 20 23.7989 19.7366 24.2678 19.2678C24.7366 18.7989 25 18.163 25 17.5V2.5C25 1.83696 24.7366 1.20107 24.2678 0.732233C23.7989 0.263392 23.163 0 22.5 0H2.5ZM2.5 2.5H22.5V17.5H13.85L10 21.35V17.5H2.5V2.5ZM12.7375 4.375C11.625 4.375 10.7375 4.6 10.0625 5.05C9.375 5.5 9.025 6.25 9.0875 7.1125H11.55C11.55 6.7625 11.675 6.5 11.875 6.325C12.125 6.15 12.4 6.0625 12.7375 6.0625C13.125 6.0625 13.4625 6.1625 13.6875 6.3875C13.9125 6.6 14.025 6.875 14.025 7.25C14.025 7.6 13.925 7.9125 13.75 8.175C13.5375 8.45 13.275 8.675 12.95 8.85C12.3 9.25 11.875 9.6 11.6125 9.9C11.375 10.2 11.25 10.625 11.25 11.25H13.75C13.75 10.9 13.8125 10.625 13.925 10.4C14.0375 10.1875 14.25 10 14.575 9.8125C15.15 9.55 15.625 9.2 15.9875 8.75C16.35 8.2875 16.5375 7.8 16.5375 7.25C16.5375 6.375 16.2 5.675 15.525 5.15C14.85 4.6375 13.9125 4.375 12.7375 4.375ZM11.25 12.5V15H13.75V12.5H11.25Z" fill="#A196CB"/>
</svg>
