<svg width="20" height="23" viewBox="0 0 20 23" fill="none" xmlns="http://www.w3.org/2000/svg">
<path d="M0 4.89362V21.4047C0 22.124 0.634359 23 1.41538 23H18.4503C19.2292 23 20 22.124 20 21.4047V4.89362H0ZM9.97949 17.9968C6.97436 17.9968 4.53795 15.7486 4.53795 12.9744C4.53795 10.2003 6.97436 7.95213 9.97949 7.95213C12.9846 7.95213 15.421 10.2003 15.421 12.9744C15.421 15.7491 12.9846 17.9968 9.97949 17.9968ZM18.4503 0H1.41538C0.634359 0 0 0.505511 0 1.22585V3.91489H20V1.22585C20 0.505511 19.2292 0 18.4503 0ZM6.66667 2.93617H1.02564V0.978723H6.66667V2.93617ZM16.4851 2.79915C15.8446 2.79915 15.3272 2.32006 15.3272 1.72843C15.3272 1.13777 15.8446 0.658681 16.4851 0.658681C17.1256 0.658681 17.6446 1.13777 17.6446 1.72843C17.6441 2.31957 17.1256 2.79915 16.4851 2.79915Z" fill="#9176AE"/>
<circle cx="10" cy="13" r="3.5" stroke="#9176AE"/>
</svg>
