<svg width="23" height="23" viewBox="0 0 23 23" fill="none" xmlns="http://www.w3.org/2000/svg">
<path d="M20.7703 17.7803C20.1542 17.2311 19.6148 16.6014 19.1667 15.9083C18.6774 14.9516 18.3842 13.9068 18.3042 12.8353V9.67917C18.3084 7.99609 17.6979 6.36939 16.5873 5.10471C15.4767 3.84003 13.9426 3.02442 12.2731 2.81112V1.98695C12.2731 1.76074 12.1832 1.5438 12.0232 1.38385C11.8633 1.22389 11.6463 1.13403 11.4201 1.13403C11.1939 1.13403 10.977 1.22389 10.817 1.38385C10.6571 1.5438 10.5672 1.76074 10.5672 1.98695V2.82389C8.91266 3.05257 7.39703 3.87311 6.30106 5.13355C5.20508 6.39398 4.60302 8.00889 4.60639 9.67917V12.8353C4.52637 13.9068 4.23313 14.9516 3.74389 15.9083C3.30362 16.5998 2.7729 17.2294 2.16583 17.7803C2.09768 17.8402 2.04306 17.9139 2.00561 17.9965C1.96815 18.0791 1.94872 18.1687 1.94861 18.2595V19.1283C1.94861 19.2978 2.01592 19.4603 2.13573 19.5801C2.25555 19.6999 2.41805 19.7672 2.5875 19.7672H20.3486C20.5181 19.7672 20.6806 19.6999 20.8004 19.5801C20.9202 19.4603 20.9875 19.2978 20.9875 19.1283V18.2595C20.9874 18.1687 20.968 18.0791 20.9305 17.9965C20.893 17.9139 20.8384 17.8402 20.7703 17.7803ZM3.2775 18.4895C3.87193 17.9152 4.3953 17.2717 4.83639 16.5728C5.45267 15.4173 5.81225 14.1425 5.89055 12.8353V9.67917C5.86522 8.93042 5.99081 8.18422 6.25986 7.48501C6.52891 6.78581 6.93591 6.1479 7.45663 5.60926C7.97734 5.07062 8.60113 4.64228 9.29083 4.34974C9.98054 4.05719 10.7221 3.90643 11.4712 3.90643C12.2204 3.90643 12.962 4.05719 13.6517 4.34974C14.3414 4.64228 14.9651 5.07062 15.4859 5.60926C16.0066 6.1479 16.4136 6.78581 16.6826 7.48501C16.9517 8.18422 17.0773 8.93042 17.0519 9.67917V12.8353C17.1302 14.1425 17.4898 15.4173 18.1061 16.5728C18.5472 17.2717 19.0706 17.9152 19.665 18.4895H3.2775Z" fill="black"/>
<path d="M11.5 21.9011C11.9025 21.8919 12.2887 21.7406 12.5903 21.474C12.892 21.2074 13.0896 20.8427 13.1483 20.4445H9.78778C9.84814 20.8535 10.055 21.2268 10.37 21.4947C10.685 21.7627 11.0865 21.9071 11.5 21.9011Z" fill="black"/>
</svg>
