<svg width="20" height="28" viewBox="0 0 20 28" fill="none" xmlns="http://www.w3.org/2000/svg">
<path d="M9.9386 0C8.64977 0 7.47644 0.645799 6.8685 1.65523L6.60101 2.09975L6.13897 1.85532C5.70734 1.62468 5.21491 1.50247 4.72248 1.50247C3.00201 1.50247 1.60375 2.91448 1.60375 4.69013C1.60375 6.27767 2.73451 7.60162 4.24828 7.84125L4.71032 7.91313V11.1122C8.23029 10.4472 11.7624 10.4173 15.2885 11.1122V6.93665L15.5803 6.78089C16.5347 6.28366 17.167 5.21731 17.167 4.01617C17.167 2.29085 15.9086 0.953722 14.407 0.953722C14.0118 0.953722 13.6166 1.05017 13.2579 1.23648L12.881 1.42819L12.6014 1.12326C11.9448 0.418152 10.9721 0 9.9386 0ZM9.99939 11.6693C8.44307 11.6693 6.89282 11.8131 5.33649 12.0887C5.28178 12.4481 5.25746 12.8195 5.25746 13.2029C5.25746 14.9402 5.81677 16.5098 6.6922 17.6181C7.56763 18.7264 8.7288 19.3734 9.99939 19.3734C11.27 19.3734 12.4312 18.7264 13.3066 17.6181C14.182 16.5098 14.7413 14.9402 14.7413 13.2029C14.7413 12.8195 14.7109 12.4421 14.6623 12.0827C13.106 11.8011 11.5557 11.6633 9.99939 11.6693ZM7.12384 19.5112L1.70102 21.2904L0 28H13.9875L13.106 21.9074L14.1881 21.7517L15.0939 28H20L18.2978 21.2904L12.8749 19.5112C12.036 20.1042 11.0511 20.4517 9.99939 20.4517C8.94766 20.4517 7.96279 20.1042 7.12384 19.5112ZM11.3369 22.6683C11.4167 22.6683 11.4958 22.6837 11.5695 22.7139C11.6433 22.744 11.7103 22.7881 11.7668 22.8437C11.8232 22.8993 11.868 22.9654 11.8985 23.0381C11.9291 23.1108 11.9448 23.1887 11.9448 23.2673C11.9448 23.346 11.9291 23.4239 11.8985 23.4966C11.868 23.5693 11.8232 23.6353 11.7668 23.691C11.7103 23.7466 11.6433 23.7907 11.5695 23.8208C11.4958 23.8509 11.4167 23.8664 11.3369 23.8664C11.257 23.8664 11.178 23.8509 11.1042 23.8208C11.0304 23.7907 10.9634 23.7466 10.907 23.691C10.8505 23.6353 10.8057 23.5693 10.7752 23.4966C10.7446 23.4239 10.7289 23.346 10.7289 23.2673C10.7289 23.1887 10.7446 23.1108 10.7752 23.0381C10.8057 22.9654 10.8505 22.8993 10.907 22.8437C10.9634 22.7881 11.0304 22.744 11.1042 22.7139C11.178 22.6837 11.257 22.6683 11.3369 22.6683ZM11.7624 25.424C11.9237 25.424 12.0783 25.4871 12.1923 25.5995C12.3063 25.7118 12.3704 25.8642 12.3704 26.0231C12.3704 26.1819 12.3063 26.3343 12.1923 26.4467C12.0783 26.559 11.9237 26.6221 11.7624 26.6221C11.6012 26.6221 11.4465 26.559 11.3325 26.4467C11.2185 26.3343 11.1545 26.1819 11.1545 26.0231C11.1545 25.8642 11.2185 25.7118 11.3325 25.5995C11.4465 25.4871 11.6012 25.424 11.7624 25.424Z" fill="#9176AE"/>
</svg>
