<svg width="25" height="25" viewBox="0 0 25 25" fill="none" xmlns="http://www.w3.org/2000/svg">
<path d="M16.0978 0L12.5494 3.55545C11.5839 4.53539 11.5839 6.13095 12.5494 7.1109L14.3173 8.88234L8.61234 14.5987L5.07652 11.0432L3.29607 12.8021C-2.91043 19.0838 1.55323 23.481 1.55323 23.481C1.55323 23.481 5.94167 27.8782 12.2109 21.7096L13.9788 19.9381L10.468 16.4204L16.1604 10.7166L17.9033 12.4629C18.8813 13.4303 20.4736 13.4303 21.4516 12.4629L25 8.90746L16.0978 0ZM19.6461 10.6412L17.9158 8.90746L16.1103 7.09833L14.3549 5.33945L16.1228 3.56801L21.4266 8.88234L19.6461 10.6412Z" fill="#9176AE"/>
</svg>
