<svg width="17" height="26" viewBox="0 0 17 26" fill="none" xmlns="http://www.w3.org/2000/svg">
<path d="M15.0218 10.7483C11.8691 8.14725 11.5909 3.3915 11.5909 2.55H9.27273V5.1H3.09091V2.55H0C0 1.1475 1.39091 0 3.09091 0H13.9091V1.275C13.9091 1.377 13.9709 7.17825 16.66 9.39675L15.0218 10.7483ZM15.4545 0V2.55H17V0H15.4545ZM12.3636 12.75C9.27273 10.2 9.27273 6.375 9.27273 6.375H3.09091V8.925C3.09091 10.2 3.09091 10.2 1.54545 11.475C0 12.75 0 14.025 0 14.025V22.95C0 24.3525 1.39091 25.5 3.09091 25.5H9.27273C10.9727 25.5 12.3636 24.3525 12.3636 22.95V12.75Z" fill="#9176AE"/>
</svg>
