<svg width="23" height="23" viewBox="0 0 23 23" fill="none" xmlns="http://www.w3.org/2000/svg">
<path d="M19.55 20.7683H3.45V21.8836C3.45 22.1794 3.32884 22.4631 3.11317 22.6722C2.89751 22.8814 2.605 22.9989 2.3 22.9989H1.15C0.845001 22.9989 0.552494 22.8814 0.336827 22.6722C0.12116 22.4631 0 22.1794 0 21.8836V11.8457L2.77955 7.35215C2.98404 7.02205 3.27316 6.74892 3.61878 6.55934C3.9644 6.36975 4.35473 6.27018 4.7518 6.27029H18.2482C18.6453 6.27018 19.0356 6.36975 19.3812 6.55934C19.7268 6.74892 20.016 7.02205 20.2204 7.35215L23 11.8469V21.8847C23 22.1805 22.8788 22.4642 22.6632 22.6733C22.4475 22.8825 22.155 23 21.85 23H20.7C20.395 23 20.1025 22.8825 19.8868 22.6733C19.6712 22.4642 19.55 22.1805 19.55 21.8847V20.7683ZM2.6818 11.8457H20.3182L18.2482 8.49981H4.7518L2.6818 11.8457ZM5.175 17.4223C5.6325 17.4223 6.07126 17.2461 6.39476 16.9323C6.71826 16.6186 6.9 16.193 6.9 15.7493C6.9 15.3056 6.71826 14.8801 6.39476 14.5664C6.07126 14.2526 5.6325 14.0764 5.175 14.0764C4.7175 14.0764 4.27874 14.2526 3.95524 14.5664C3.63174 14.8801 3.45 15.3056 3.45 15.7493C3.45 16.193 3.63174 16.6186 3.95524 16.9323C4.27874 17.2461 4.7175 17.4223 5.175 17.4223ZM17.825 17.4223C18.2825 17.4223 18.7213 17.2461 19.0448 16.9323C19.3683 16.6186 19.55 16.193 19.55 15.7493C19.55 15.3056 19.3683 14.8801 19.0448 14.5664C18.7213 14.2526 18.2825 14.0764 17.825 14.0764C17.3675 14.0764 16.9287 14.2526 16.6052 14.5664C16.2817 14.8801 16.1 15.3056 16.1 15.7493C16.1 16.193 16.2817 16.6186 16.6052 16.9323C16.9287 17.2461 17.3675 17.4223 17.825 17.4223ZM3.956 1.18335L5.175 0L6.394 1.18223C6.6353 1.41618 6.79964 1.71428 6.86624 2.03881C6.93284 2.36335 6.89871 2.69976 6.76817 3.00548C6.63762 3.31121 6.41652 3.57252 6.13284 3.75637C5.84915 3.94022 5.51562 4.03835 5.17442 4.03835C4.83323 4.03835 4.4997 3.94022 4.21601 3.75637C3.93233 3.57252 3.71123 3.31121 3.58068 3.00548C3.45014 2.69976 3.41601 2.36335 3.48261 2.03881C3.54921 1.71428 3.71355 1.41618 3.95485 1.18223L3.956 1.18335ZM10.281 1.18335L11.5 0L12.719 1.18223C12.9603 1.41618 13.1246 1.71428 13.1912 2.03881C13.2578 2.36335 13.2237 2.69976 13.0932 3.00548C12.9626 3.31121 12.7415 3.57252 12.4578 3.75637C12.1742 3.94022 11.8406 4.03835 11.4994 4.03835C11.1582 4.03835 10.8247 3.94022 10.541 3.75637C10.2573 3.57252 10.0362 3.31121 9.90568 3.00548C9.77514 2.69976 9.74101 2.36335 9.80761 2.03881C9.87421 1.71428 10.0386 1.41618 10.2799 1.18223L10.281 1.18335ZM16.606 1.18335L17.825 0L19.044 1.18223C19.2853 1.41618 19.4496 1.71428 19.5162 2.03881C19.5828 2.36335 19.5487 2.69976 19.4182 3.00548C19.2876 3.31121 19.0665 3.57252 18.7828 3.75637C18.4992 3.94022 18.1656 4.03835 17.8244 4.03835C17.4832 4.03835 17.1497 3.94022 16.866 3.75637C16.5823 3.57252 16.3612 3.31121 16.2307 3.00548C16.1001 2.69976 16.066 2.36335 16.1326 2.03881C16.1992 1.71428 16.3636 1.41618 16.6048 1.18223L16.606 1.18335Z" fill="#9176AE"/>
</svg>
