<svg width="28" height="29" viewBox="0 0 28 29" fill="none" xmlns="http://www.w3.org/2000/svg">
<path d="M6.24119 0L2.7374 0.883075L0 7.33067L2.10506 8.74716L3.84146 5.24422L4.9196 5.55686L3.96667 15.1341H13.3171L13.8988 9.5256L13.9557 9.00877H14.2403L13.8988 5.55686L14.9801 5.24422L16.7127 8.74716L18.8184 7.33067L16.0804 0.883075L12.5772 0C12.2295 0.246929 11.8058 0.396235 11.3442 0.507258C10.7498 0.648269 10.0795 0.713989 9.40921 0.713989C8.73893 0.713989 8.06866 0.648269 7.47426 0.507258C7.01265 0.396235 6.58898 0.247567 6.24119 0ZM14.9801 10.1573L14.8853 11.0506H26.1915L26.0967 10.1573H14.9801ZM14.7651 12.1991L13.0768 28.4058H17.0416L19.9819 14.5663H21.0949L24.0352 28.4058H28L26.3117 12.1991H14.7651Z" fill="#9176AE"/>
</svg>
