<svg width="23" height="23" viewBox="0 0 23 23" fill="none" xmlns="http://www.w3.org/2000/svg">
<path d="M2.875 10.8947C2.07 10.8947 1.38958 10.6022 0.83375 10.0171C0.277917 9.43202 0 8.71579 0 7.86842C0 7.02105 0.277917 6.30482 0.83375 5.71974C1.38958 5.13465 2.07 4.8421 2.875 4.8421C3.68 4.8421 4.36042 5.13465 4.91625 5.71974C5.47208 6.30482 5.75 7.02105 5.75 7.86842C5.75 8.71579 5.47208 9.43202 4.91625 10.0171C4.36042 10.6022 3.68 10.8947 2.875 10.8947ZM8.05 6.05263C7.245 6.05263 6.56458 5.76009 6.00875 5.175C5.45292 4.58991 5.175 3.87368 5.175 3.02632C5.175 2.17895 5.45292 1.46272 6.00875 0.877631C6.56458 0.292544 7.245 0 8.05 0C8.855 0 9.53542 0.292544 10.0912 0.877631C10.6471 1.46272 10.925 2.17895 10.925 3.02632C10.925 3.87368 10.6471 4.58991 10.0912 5.175C9.53542 5.76009 8.855 6.05263 8.05 6.05263ZM14.95 6.05263C14.145 6.05263 13.4646 5.76009 12.9088 5.175C12.3529 4.58991 12.075 3.87368 12.075 3.02632C12.075 2.17895 12.3529 1.46272 12.9088 0.877631C13.4646 0.292544 14.145 0 14.95 0C15.755 0 16.4354 0.292544 16.9912 0.877631C17.5471 1.46272 17.825 2.17895 17.825 3.02632C17.825 3.87368 17.5471 4.58991 16.9912 5.175C16.4354 5.76009 15.755 6.05263 14.95 6.05263ZM20.125 10.8947C19.32 10.8947 18.6396 10.6022 18.0837 10.0171C17.5279 9.43202 17.25 8.71579 17.25 7.86842C17.25 7.02105 17.5279 6.30482 18.0837 5.71974C18.6396 5.13465 19.32 4.8421 20.125 4.8421C20.93 4.8421 21.6104 5.13465 22.1662 5.71974C22.7221 6.30482 23 7.02105 23 7.86842C23 8.71579 22.7221 9.43202 22.1662 10.0171C21.6104 10.6022 20.93 10.8947 20.125 10.8947ZM5.3475 23C4.485 23 3.76127 22.6518 3.1763 21.9553C2.59133 21.2589 2.29923 20.4373 2.3 19.4907C2.3 18.4416 2.6404 17.5236 3.3212 16.7367C4.002 15.9499 4.67743 15.1731 5.3475 14.4065C5.90333 13.781 6.3825 13.1003 6.785 12.3643C7.1875 11.6283 7.66667 10.9371 8.2225 10.2907C8.64417 9.76612 9.13292 9.33235 9.68875 8.98937C10.2446 8.64639 10.8483 8.47449 11.5 8.47368C12.1517 8.47368 12.7554 8.63509 13.3112 8.95789C13.8671 9.2807 14.3558 9.70439 14.7775 10.2289C15.3142 10.8746 15.7887 11.5706 16.2012 12.3171C16.6137 13.0636 17.0974 13.7596 17.6525 14.4053C18.3233 15.1719 18.9988 15.9487 19.6788 16.7355C20.3588 17.5224 20.6992 18.4404 20.7 19.4895C20.7 20.4377 20.4075 21.2601 19.8225 21.9565C19.2376 22.653 18.5142 23.0008 17.6525 23C16.6175 23 15.5921 22.9092 14.5763 22.7276C13.5604 22.546 12.535 22.4553 11.5 22.4553C10.465 22.4553 9.43958 22.546 8.42375 22.7276C7.40792 22.9092 6.3825 23 5.3475 23Z" fill="#9176AE"/>
</svg>
