<svg width="26" height="26" viewBox="0 0 26 26" fill="none" xmlns="http://www.w3.org/2000/svg">
<path d="M8.32973 16.4288C4.27762 16.4288 1 12.9715 1 8.71438C1 4.4573 4.27762 1 8.32973 1H15.9559C20.008 1 23.2856 4.4573 23.2856 8.71438C23.2856 12.9715 20.008 16.4288 15.9559 16.4288H8.32973Z" stroke="#593D77" stroke-width="1.5" stroke-linecap="round" stroke-linejoin="round"/>
<path d="M13.2724 19.5463V24.2503C13.2724 24.6589 12.9429 25.0001 12.5479 25.0001C12.4521 24.9995 12.3575 24.9795 12.2697 24.9414C12.1818 24.9032 12.1026 24.8478 12.0367 24.7783L4.88863 17.4161C3.48819 15.9839 2.71436 14.0237 2.71436 11.996C2.71436 7.82001 5.99198 4.42822 10.0441 4.42822H17.6703C21.7224 4.42822 25 7.82066 25 11.996C25 16.1714 21.7224 19.5631 17.6703 19.5631H13.2724V19.5463Z" stroke="#593D77" stroke-width="1.5" stroke-linecap="round" stroke-linejoin="round"/>
</svg>
