<svg width="17" height="19" viewBox="0 0 17 19" fill="none" xmlns="http://www.w3.org/2000/svg">
<path d="M15.1111 1.9H14.1667V0H12.2778V1.9H4.72222V0H2.83333V1.9H1.88889C0.85 1.9 0 2.755 0 3.8V17.1C0 17.6039 0.199007 18.0872 0.553243 18.4435C0.907478 18.7998 1.38792 19 1.88889 19H15.1111C16.1594 19 17 18.1545 17 17.1V3.8C17 3.29609 16.801 2.81282 16.4468 2.4565C16.0925 2.10018 15.6121 1.9 15.1111 1.9ZM15.1111 17.1H1.88889V7.6H15.1111V17.1ZM1.88889 5.7V3.8H15.1111V5.7H1.88889ZM7.14 15.637L12.75 10.0035L11.7394 8.9965L7.14 13.623L5.14722 11.6185L4.14611 12.6255L7.14 15.637Z" fill="#5F457E"/>
</svg>
