<svg width="28" height="16" viewBox="0 0 28 16" fill="none" xmlns="http://www.w3.org/2000/svg">
<path d="M27.9618 4.70853C28.0412 4.38865 27.996 4.05118 27.835 3.76236C27.4241 3.06225 26.8766 2.4487 26.2237 1.95692C25.5708 1.46514 24.8255 1.10481 24.0304 0.896605C23.2354 0.6884 22.4064 0.636419 21.5908 0.743644C20.7753 0.850868 19.9893 1.11519 19.2781 1.52144L16.5525 3.06518L10.2141 0.139536C10.0339 0.0478531 9.8339 0 9.63095 0C9.428 0 9.22802 0.0478531 9.04781 0.139536L5.24474 2.29331C5.05679 2.39978 4.89981 2.55184 4.78883 2.73495C4.67785 2.91805 4.61658 3.12606 4.61089 3.33908C4.60476 3.55367 4.65523 3.76617 4.7574 3.95595C4.85958 4.14574 5.00999 4.30635 5.19403 4.42219L9.37741 7.0117L7.17163 8.25665L1.11207 8.97873C0.868475 9.00832 0.638869 9.10672 0.451123 9.26199C0.263377 9.41726 0.125566 9.62271 0.0544215 9.85341C-0.0167232 10.0841 -0.0181421 10.3301 0.0503371 10.5616C0.118816 10.7931 0.254248 11.0001 0.440191 11.1574L4.92782 14.967C5.51862 15.5207 6.27525 15.873 7.08574 15.9716C7.89623 16.0703 8.71753 15.9101 9.42812 15.5148L27.3279 5.46795C27.4805 5.39018 27.6153 5.28275 27.7243 5.1522C27.8333 5.02165 27.9141 4.8707 27.9618 4.70853ZM8.27452 13.4232C8.03101 13.5548 7.75021 13.6042 7.47534 13.5637C7.20047 13.5232 6.94678 13.3951 6.75329 13.1991L4.34468 11.1699L7.80548 10.759C7.97554 10.7376 8.13942 10.6826 8.2872 10.5972L12.5466 8.19441C12.7364 8.08685 12.8945 7.93283 13.0056 7.74737C13.1167 7.5619 13.177 7.35133 13.1805 7.13619C13.1831 6.92252 13.1296 6.71178 13.0253 6.52427C12.9209 6.33675 12.7692 6.17877 12.5847 6.06553L8.40129 3.46357L9.79575 2.67925L16.1342 5.56755C16.3144 5.65923 16.5144 5.70708 16.7173 5.70708C16.9203 5.70708 17.1203 5.65923 17.3005 5.56755L20.5458 3.72501C21.2108 3.359 21.9725 3.19772 22.732 3.26209C23.4916 3.32647 24.2139 3.61354 24.8052 4.08605L8.27452 13.4232Z" fill="#5F457E"/>
</svg>
