<svg width="17" height="17" viewBox="0 0 17 17" fill="none" xmlns="http://www.w3.org/2000/svg">
<path d="M9.44444 4.72222V0.944447C9.44444 0.676855 9.53511 0.452392 9.71644 0.271059C9.89778 0.0897254 10.1219 -0.000626361 10.3889 3.26797e-06H16.0556C16.3231 3.26797e-06 16.5476 0.09067 16.7289 0.272003C16.9103 0.453337 17.0006 0.677485 17 0.944447V4.72222C17 4.98982 16.9093 5.21428 16.728 5.39561C16.5467 5.57695 16.3225 5.6673 16.0556 5.66667H10.3889C10.1213 5.66667 9.89683 5.576 9.7155 5.39467C9.53417 5.21333 9.44381 4.98919 9.44444 4.72222ZM3.26797e-06 8.5V0.944447C3.26797e-06 0.676855 0.09067 0.452392 0.272003 0.271059C0.453337 0.0897254 0.677485 -0.000626361 0.944447 3.26797e-06H6.61111C6.8787 3.26797e-06 7.10317 0.09067 7.2845 0.272003C7.46583 0.453337 7.55619 0.677485 7.55556 0.944447V8.5C7.55556 8.76759 7.46489 8.99206 7.28356 9.17339C7.10222 9.35472 6.87807 9.44507 6.61111 9.44444H0.944447C0.676855 9.44444 0.452392 9.35378 0.271059 9.17244C0.0897254 8.99111 -0.000626361 8.76696 3.26797e-06 8.5ZM9.44444 16.0556V8.5C9.44444 8.23241 9.53511 8.00794 9.71644 7.82661C9.89778 7.64528 10.1219 7.55493 10.3889 7.55556H16.0556C16.3231 7.55556 16.5476 7.64622 16.7289 7.82756C16.9103 8.00889 17.0006 8.23304 17 8.5V16.0556C17 16.3231 16.9093 16.5476 16.728 16.7289C16.5467 16.9103 16.3225 17.0006 16.0556 17H10.3889C10.1213 17 9.89683 16.9093 9.7155 16.728C9.53417 16.5467 9.44381 16.3225 9.44444 16.0556ZM3.26797e-06 16.0556V12.2778C3.26797e-06 12.0102 0.09067 11.7857 0.272003 11.6044C0.453337 11.4231 0.677485 11.3327 0.944447 11.3333H6.61111C6.8787 11.3333 7.10317 11.424 7.2845 11.6053C7.46583 11.7867 7.55619 12.0108 7.55556 12.2778V16.0556C7.55556 16.3231 7.46489 16.5476 7.28356 16.7289C7.10222 16.9103 6.87807 17.0006 6.61111 17H0.944447C0.676855 17 0.452392 16.9093 0.271059 16.728C0.0897254 16.5467 -0.000626361 16.3225 3.26797e-06 16.0556ZM1.88889 7.55556H5.66667V1.88889H1.88889V7.55556ZM11.3333 15.1111H15.1111V9.44444H11.3333V15.1111ZM11.3333 3.77778H15.1111V1.88889H11.3333V3.77778ZM1.88889 15.1111H5.66667V13.2222H1.88889V15.1111Z" fill="#5F457E"/>
</svg>
